<svg width="24" height="24" viewBox="0 0 24 24" fill="none" xmlns="http://www.w3.org/2000/svg">
<path d="M9.585 7L11.295 8.705L11.585 9H18V17H6V7H9.585ZM9.585 6H6C5.73478 6 5.48043 6.10536 5.29289 6.29289C5.10536 6.48043 5 6.73478 5 7V17C5 17.2652 5.10536 17.5196 5.29289 17.7071C5.48043 17.8946 5.73478 18 6 18H18C18.2652 18 18.5196 17.8946 18.7071 17.7071C18.8946 17.5196 19 17.2652 19 17V9C19 8.73478 18.8946 8.48043 18.7071 8.29289C18.5196 8.10536 18.2652 8 18 8H12L10.295 6.295C10.202 6.20142 10.0913 6.12717 9.96948 6.07654C9.84763 6.02591 9.71696 5.9999 9.585 6Z" fill="#191919"/>
</svg>
