<svg width="48" height="48" viewBox="0 0 48 48" fill="none" xmlns="http://www.w3.org/2000/svg">
<rect width="16" height="16" transform="translate(16 16)" fill="current" fill-opacity="0.01" style="mix-blend-mode:multiply"/>
<path d="M25 30C26.1867 30 27.3467 29.6481 28.3334 28.9888C29.3201 28.3295 30.0892 27.3925 30.5433 26.2961C30.9974 25.1997 31.1162 23.9933 30.8847 22.8295C30.6532 21.6656 30.0818 20.5965 29.2426 19.7574C28.4035 18.9182 27.3344 18.3468 26.1705 18.1153C25.0067 17.8838 23.8003 18.0026 22.7039 18.4567C21.6075 18.9109 20.6705 19.6799 20.0112 20.6666C19.3519 21.6533 19 22.8133 19 24V27.1L17.2 25.3L16.5 26L19.5 29L22.5 26L21.8 25.3L20 27.1V24C20 23.0111 20.2932 22.0444 20.8427 21.2222C21.3921 20.3999 22.173 19.759 23.0866 19.3806C24.0002 19.0022 25.0055 18.9032 25.9755 19.0961C26.9454 19.289 27.8363 19.7652 28.5355 20.4645C29.2348 21.1637 29.711 22.0546 29.9039 23.0246C30.0969 23.9945 29.9978 24.9998 29.6194 25.9134C29.241 26.8271 28.6001 27.6079 27.7779 28.1574C26.9556 28.7068 25.9889 29 25 29V30Z" fill="current"/>
</svg>
