<svg width="28" height="28" viewBox="0 0 28 28" fill="none" xmlns="http://www.w3.org/2000/svg">
<rect width="28" height="28" fill="white" fill-opacity="0.01" style="mix-blend-mode:multiply"/>
<path d="M20.125 21C16.9758 21 15.7244 17.3462 14.514 13.8128C13.3669 10.4635 12.18 7 9.625 7C9.02834 7.03508 8.45563 7.24701 7.97985 7.60877C7.50407 7.97053 7.14676 8.46574 6.95345 9.03131L5.29489 8.47332C5.3389 8.34172 6.40658 5.25 9.625 5.25C13.4305 5.25 14.8857 9.49786 16.17 13.2457C17.2274 16.3334 18.2262 19.25 20.125 19.25C20.7217 19.2149 21.2944 19.003 21.7702 18.6412C22.2459 18.2795 22.6032 17.7843 22.7966 17.2187L24.4551 17.7767C24.4111 17.9083 23.3434 21 20.125 21Z" fill="#833AB4"/>
<path d="M3.5 24.5V14.875H5.25V13.125H3.5V1.75H1.75V24.5C1.75 24.9641 1.93437 25.4092 2.26256 25.7374C2.59075 26.0656 3.03587 26.25 3.5 26.25H26.25V24.5H3.5Z" fill="#833AB4"/>
<path d="M8.75 13.125H7V14.875H8.75V13.125Z" fill="#833AB4"/>
<path d="M12.25 13.125H10.5V14.875H12.25V13.125Z" fill="#833AB4"/>
<path d="M19.25 13.125H17.5V14.875H19.25V13.125Z" fill="#833AB4"/>
<path d="M22.75 13.125H21V14.875H22.75V13.125Z" fill="#833AB4"/>
<path d="M26.25 13.125H24.5V14.875H26.25V13.125Z" fill="#833AB4"/>
</svg>
