<svg width="28" height="28" viewBox="0 0 28 28" fill="none" xmlns="http://www.w3.org/2000/svg">
<rect width="28" height="28" fill="white" fill-opacity="0.01" style="mix-blend-mode:multiply"/>
<path d="M26.25 26.25H3.5C3.03587 26.25 2.59075 26.0656 2.26256 25.7374C1.93437 25.4092 1.75 24.9641 1.75 24.5V1.75H3.5V24.5H26.25V26.25Z" fill="#775617"/>
<path d="M8.75 14C9.09612 14 9.43446 14.1026 9.72225 14.2949C10.01 14.4872 10.2343 14.7605 10.3668 15.0803C10.4992 15.4001 10.5339 15.7519 10.4664 16.0914C10.3989 16.4309 10.2322 16.7427 9.98744 16.9874C9.74269 17.2322 9.43087 17.3989 9.09141 17.4664C8.75194 17.5339 8.40007 17.4992 8.0803 17.3668C7.76053 17.2343 7.48722 17.01 7.29493 16.7222C7.10264 16.4345 7 16.0961 7 15.75C7 15.2859 7.18437 14.8408 7.51256 14.5126C7.84075 14.1844 8.28587 14 8.75 14ZM8.75 12.25C8.05777 12.25 7.38108 12.4553 6.8055 12.8399C6.22993 13.2244 5.78133 13.7711 5.51642 14.4106C5.25151 15.0501 5.1822 15.7539 5.31725 16.4328C5.4523 17.1117 5.78564 17.7354 6.27513 18.2249C6.76461 18.7144 7.38825 19.0477 8.06718 19.1827C8.74612 19.3178 9.44985 19.2485 10.0894 18.9836C10.7289 18.7187 11.2756 18.2701 11.6601 17.6945C12.0447 17.1189 12.25 16.4422 12.25 15.75C12.25 14.8217 11.8813 13.9315 11.2249 13.2751C10.5685 12.6187 9.67826 12.25 8.75 12.25Z" fill="#775617"/>
<path d="M18.375 5.25C19.0672 5.25 19.7439 5.45527 20.3195 5.83986C20.8951 6.22444 21.3437 6.77107 21.6086 7.41061C21.8735 8.05015 21.9428 8.75388 21.8077 9.43282C21.6727 10.1117 21.3394 10.7354 20.8499 11.2249C20.3604 11.7144 19.7367 12.0477 19.0578 12.1827C18.3789 12.3178 17.6751 12.2485 17.0356 11.9836C16.3961 11.7187 15.8494 11.2701 15.4649 10.6945C15.0803 10.1189 14.875 9.44223 14.875 8.75C14.875 7.82174 15.2437 6.9315 15.9001 6.27513C16.5565 5.61875 17.4467 5.25 18.375 5.25ZM18.375 3.5C17.3366 3.5 16.3216 3.80791 15.4583 4.38478C14.5949 4.96166 13.922 5.7816 13.5246 6.74091C13.1273 7.70022 13.0233 8.75582 13.2259 9.77422C13.4284 10.7926 13.9285 11.7281 14.6627 12.4623C15.3969 13.1965 16.3324 13.6966 17.3508 13.8991C18.3692 14.1017 19.4248 13.9977 20.3841 13.6004C21.3434 13.203 22.1633 12.5301 22.7402 11.6667C23.3171 10.8034 23.625 9.78835 23.625 8.75C23.625 7.35761 23.0719 6.02226 22.0873 5.03769C21.1027 4.05312 19.7674 3.5 18.375 3.5Z" fill="#775617"/>
<path d="M21.4375 18.375C21.6971 18.375 21.9508 18.452 22.1667 18.5962C22.3825 18.7404 22.5508 18.9454 22.6501 19.1852C22.7494 19.4251 22.7754 19.689 22.7248 19.9436C22.6741 20.1982 22.5491 20.432 22.3656 20.6156C22.182 20.7991 21.9482 20.9241 21.6936 20.9748C21.439 21.0254 21.1751 20.9994 20.9352 20.9001C20.6954 20.8008 20.4904 20.6325 20.3462 20.4167C20.202 20.2008 20.125 19.9471 20.125 19.6875C20.125 19.3394 20.2633 19.0056 20.5094 18.7594C20.7556 18.5133 21.0894 18.375 21.4375 18.375ZM21.4375 16.625C20.8318 16.625 20.2397 16.8046 19.7361 17.1411C19.2324 17.4776 18.8399 17.9559 18.6081 18.5155C18.3763 19.0751 18.3157 19.6909 18.4338 20.285C18.552 20.879 18.8437 21.4247 19.272 21.853C19.7003 22.2813 20.246 22.573 20.84 22.6912C21.4341 22.8093 22.0499 22.7487 22.6095 22.5169C23.1691 22.2851 23.6474 21.8926 23.9839 21.3889C24.3204 20.8853 24.5 20.2932 24.5 19.6875C24.5 18.8753 24.1773 18.0963 23.603 17.522C23.0287 16.9477 22.2497 16.625 21.4375 16.625Z" fill="#775617"/>
</svg>
