<svg width="28" height="28" viewBox="0 0 28 28" fill="none" xmlns="http://www.w3.org/2000/svg">
<rect width="28" height="28" fill="white" fill-opacity="0.01" style="mix-blend-mode:multiply"/>
<path d="M26.25 26.25H3.5C3.03587 26.25 2.59075 26.0656 2.26256 25.7374C1.93437 25.4092 1.75 24.9641 1.75 24.5V1.75H3.5V24.5H26.25V26.25Z" fill="#5851DB"/>
<path d="M10.5 14H8.75V22.75H10.5V14Z" fill="#5851DB"/>
<path d="M7.875 19.25H6.125V22.75H7.875V19.25Z" fill="#5851DB"/>
<path d="M24.5 7H22.75V22.75H24.5V7Z" fill="#5851DB"/>
<path d="M21.875 12.25H20.125V22.75H21.875V12.25Z" fill="#5851DB"/>
<path d="M13.125 22.75H14.875V10.5H13.125V22.75Z" fill="#5851DB"/>
<path d="M15.75 22.75H17.5V15.75H15.75V22.75Z" fill="#5851DB"/>
</svg>
