<svg width="24" height="24" viewBox="0 0 24 24" fill="none" xmlns="http://www.w3.org/2000/svg">
<path d="M13 10.5L12.295 11.205L13.585 12.5H9V13.5H13.585L12.295 14.795L13 15.5L15.5 13L13 10.5Z" fill="#757575"/>
<path d="M9.5858 7L11.5858 9H18V17H6V7H9.5858ZM9.5858 6H6C5.73478 6 5.48043 6.10536 5.29289 6.29289C5.10536 6.48043 5 6.73478 5 7V17C5 17.2652 5.10536 17.5196 5.29289 17.7071C5.48043 17.8946 5.73478 18 6 18H18C18.2652 18 18.5196 17.8946 18.7071 17.7071C18.8946 17.5196 19 17.2652 19 17V9C19 8.73478 18.8946 8.48043 18.7071 8.29289C18.5196 8.10536 18.2652 8 18 8H12L10.2929 6.2929C10.1054 6.10536 9.85102 6 9.5858 6Z" fill="#757575"/>
</svg>
