<svg width="24" height="24" viewBox="0 0 24 24" fill="none" xmlns="http://www.w3.org/2000/svg">
<path d="M16.9999 6.99989C16.5578 7.00124 16.1285 7.14923 15.7794 7.42067C15.4304 7.69211 15.1812 8.07167 15.071 8.49989H12.9652C12.872 7.75745 12.5722 7.05609 12.1001 6.47556C11.628 5.89503 11.0024 5.45864 10.2946 5.21601C9.58675 4.97339 8.82503 4.93427 8.09605 5.10311C7.36708 5.27195 6.70012 5.64197 6.17101 6.17108C5.64191 6.70019 5.27191 7.36717 5.10309 8.09614C4.93427 8.82512 4.9734 9.58685 5.21604 10.2947C5.45868 11.0025 5.89508 11.6281 6.47562 12.1002C7.05616 12.5723 7.75754 12.872 8.49997 12.9652V15.0709C8.02865 15.1926 7.61788 15.482 7.34467 15.8849C7.07147 16.2878 6.95458 16.7765 7.01592 17.2594C7.07725 17.7423 7.31261 18.1863 7.67786 18.5081C8.04311 18.8299 8.51319 19.0074 8.99997 19.0074C9.48676 19.0074 9.95684 18.8299 10.3221 18.5081C10.6873 18.1863 10.9227 17.7423 10.984 17.2594C11.0454 16.7765 10.9285 16.2878 10.6553 15.8849C10.3821 15.482 9.9713 15.1926 9.49997 15.0709V12.9652C10.2106 12.8759 10.884 12.5961 11.4488 12.1556L13.2834 13.9906C13.0998 14.2954 13.0019 14.6441 13 14.9999C13 15.3954 13.1173 15.7821 13.337 16.111C13.5568 16.4399 13.8691 16.6963 14.2346 16.8476C14.6 16.999 15.0022 17.0386 15.3901 16.9614C15.7781 16.8843 16.1344 16.6938 16.4141 16.4141C16.6939 16.1344 16.8843 15.778 16.9615 15.3901C17.0387 15.0021 16.9991 14.6 16.8477 14.2345C16.6963 13.8691 16.44 13.5567 16.1111 13.3369C15.7822 13.1172 15.3955 12.9999 14.9999 12.9999C14.644 13.0017 14.2953 13.0997 13.9904 13.2833L12.1558 11.4486C12.5962 10.8838 12.8759 10.2105 12.9652 9.49989H15.071C15.1651 9.86124 15.3587 10.1889 15.6297 10.4458C15.9007 10.7027 16.2383 10.8784 16.6042 10.953C16.9701 11.0276 17.3496 10.9981 17.6995 10.8679C18.0495 10.7377 18.3559 10.512 18.584 10.2163C18.8122 9.92069 18.9528 9.56701 18.99 9.19546C19.0272 8.82391 18.9594 8.44938 18.7945 8.11439C18.6295 7.77941 18.3739 7.4974 18.0566 7.30039C17.7394 7.10338 17.3733 6.99928 16.9999 6.99989ZM9.99997 16.9999C9.99997 17.1977 9.94133 17.391 9.83144 17.5554C9.72156 17.7199 9.56538 17.8481 9.38266 17.9238C9.19993 17.9994 8.99887 18.0192 8.80488 17.9807C8.6109 17.9421 8.43272 17.8468 8.29287 17.707C8.15302 17.5671 8.05777 17.3889 8.01919 17.195C7.9806 17.001 8.00041 16.7999 8.0761 16.6172C8.15178 16.4345 8.27996 16.2783 8.4444 16.1684C8.60885 16.0585 8.80219 15.9999 8.99997 15.9999C9.2651 16.0002 9.51927 16.1056 9.70674 16.2931C9.89422 16.4806 9.99967 16.7348 9.99997 16.9999ZM8.99997 11.9999C8.40663 11.9999 7.82661 11.8239 7.33326 11.4943C6.83992 11.1646 6.4554 10.6961 6.22834 10.1479C6.00127 9.59976 5.94186 8.99656 6.05762 8.41462C6.17337 7.83267 6.4591 7.29813 6.87865 6.87857C7.29821 6.45901 7.83276 6.17329 8.4147 6.05753C8.99665 5.94178 9.59985 6.00119 10.148 6.22825C10.6962 6.45531 11.1647 6.83983 11.4944 7.33318C11.824 7.82652 12 8.40654 12 8.99989C11.9991 9.79527 11.6827 10.5578 11.1203 11.1202C10.5579 11.6827 9.79536 11.999 8.99997 11.9999ZM15.9999 14.9999C15.9999 15.1977 15.9413 15.391 15.8314 15.5554C15.7215 15.7199 15.5653 15.8481 15.3826 15.9238C15.1999 15.9994 14.9988 16.0192 14.8048 15.9807C14.6109 15.9421 14.4327 15.8468 14.2928 15.707C14.153 15.5671 14.0577 15.3889 14.0191 15.195C13.9806 15.001 14.0004 14.7999 14.0761 14.6172C14.1517 14.4345 14.2799 14.2783 14.4444 14.1684C14.6088 14.0585 14.8022 13.9999 14.9999 13.9999C15.2651 14.0002 15.5192 14.1056 15.7067 14.2931C15.8942 14.4806 15.9996 14.7348 15.9999 14.9999ZM16.9999 9.99989C16.8022 9.99989 16.6088 9.94124 16.4444 9.83136C16.2799 9.72148 16.1517 9.5653 16.0761 9.38257C16.0004 9.19985 15.9806 8.99878 16.0191 8.8048C16.0577 8.61082 16.153 8.43263 16.2928 8.29278C16.4327 8.15293 16.6109 8.05769 16.8048 8.0191C16.9988 7.98052 17.1999 8.00032 17.3826 8.07601C17.5653 8.1517 17.7215 8.27987 17.8314 8.44432C17.9413 8.60877 17.9999 8.80211 17.9999 8.99989C17.9996 9.26501 17.8942 9.51919 17.7067 9.70666C17.5192 9.89413 17.2651 9.99958 16.9999 9.99989Z" fill="white"/>
</svg>
