<svg width="24" height="24" viewBox="0 0 24 24" fill="none" xmlns="http://www.w3.org/2000/svg">
<g clip-path="url(#clip0_257_1696)">
<g style="mix-blend-mode:multiply">
<path d="M19.793 4H3.79297V20H19.793V4Z" fill="white" fill-opacity="0.01"/>
</g>
<path d="M18.793 5.705L18.088 5L16.293 6.795L14.498 5L13.793 5.705L15.588 7.5L13.793 9.295L14.498 10L16.293 8.205L18.088 10L18.793 9.295L16.998 7.5L18.793 5.705Z" fill="white"/>
<path d="M15.793 11V18H12.793V7H11.793V18C11.7933 18.2651 11.8987 18.5193 12.0862 18.7068C12.2737 18.8942 12.5278 18.9997 12.793 19H15.793C16.0581 18.9997 16.3123 18.8942 16.4997 18.7068C16.6872 18.5193 16.7927 18.2651 16.793 18V11H15.793Z" fill="white"/>
<path d="M8.79297 19H5.79297C5.52784 18.9997 5.27365 18.8943 5.08617 18.7068C4.89869 18.5193 4.79325 18.2651 4.79297 18V8C4.79325 7.73487 4.89869 7.48068 5.08617 7.2932C5.27365 7.10572 5.52784 7.00028 5.79297 7H8.79297C9.0581 7.00028 9.31229 7.10572 9.49977 7.2932C9.68724 7.48068 9.79269 7.73487 9.79297 8V18C9.79269 18.2651 9.68724 18.5193 9.49977 18.7068C9.31229 18.8943 9.0581 18.9997 8.79297 19ZM5.79297 8V18H8.79297V8H5.79297Z" fill="white"/>
</g>
<defs>
<clipPath id="clip0_257_1696">
<rect width="17" height="16" fill="white" transform="translate(3 4)"/>
</clipPath>
</defs>
</svg>
