<svg width="24" height="24" viewBox="0 0 24 24" fill="none" xmlns="http://www.w3.org/2000/svg">
<path d="M17 11C17.2652 11 17.5196 10.8946 17.7071 10.7071C17.8946 10.5196 18 10.2652 18 10V7C18 6.73478 17.8946 6.48043 17.7071 6.29289C17.5196 6.10536 17.2652 6 17 6H14C13.7348 6 13.4804 6.10536 13.2929 6.29289C13.1054 6.48043 13 6.73478 13 7V10C13 10.2652 13.1054 10.5196 13.2929 10.7071C13.4804 10.8946 13.7348 11 14 11H15V13.05C14.5195 13.148 14.0785 13.3851 13.7318 13.7318C13.3851 14.0785 13.148 14.5196 13.05 15H11V14C11 13.7348 10.8947 13.4804 10.7071 13.2929C10.5196 13.1054 10.2652 13 10 13H9.00001V10.95C9.60703 10.8261 10.1464 10.4812 10.5136 9.98221C10.8808 9.4832 11.0496 8.86564 10.9873 8.24924C10.9251 7.63284 10.6362 7.06151 10.1766 6.64603C9.71702 6.23055 9.11955 6.00051 8.50001 6.00051C7.88047 6.00051 7.283 6.23055 6.82344 6.64603C6.36387 7.06151 6.07494 7.63284 6.01267 8.24924C5.9504 8.86564 6.11923 9.4832 6.48641 9.98221C6.8536 10.4812 7.39299 10.8261 8.00001 10.95V13H7.00001C6.7348 13 6.48044 13.1054 6.29291 13.2929C6.10537 13.4804 6.00001 13.7348 6.00001 14V17C6.00001 17.2652 6.10537 17.5196 6.29291 17.7071C6.48044 17.8946 6.7348 18 7.00001 18H10C10.2652 18 10.5196 17.8946 10.7071 17.7071C10.8947 17.5196 11 17.2652 11 17V16H13.05C13.1404 16.4425 13.349 16.8522 13.6536 17.1856C13.9582 17.519 14.3474 17.7637 14.7799 17.8936C15.2124 18.0236 15.6721 18.0339 16.11 17.9236C16.5479 17.8133 16.9478 17.5865 17.2671 17.2671C17.5865 16.9478 17.8133 16.5479 17.9236 16.11C18.0339 15.6721 18.0236 15.2125 17.8936 14.78C17.7637 14.3475 17.519 13.9582 17.1856 13.6536C16.8521 13.349 16.4424 13.1404 16 13.05V11H17ZM7.00001 8.5C7.00001 8.20333 7.08799 7.91332 7.25281 7.66664C7.41763 7.41997 7.6519 7.22771 7.92599 7.11418C8.20008 7.00065 8.50168 6.97094 8.79265 7.02882C9.08362 7.0867 9.35089 7.22956 9.56067 7.43934C9.77045 7.64912 9.91331 7.91639 9.97119 8.20736C10.0291 8.49834 9.99936 8.79994 9.88583 9.07403C9.7723 9.34811 9.58004 9.58238 9.33337 9.7472C9.08669 9.91203 8.79669 10 8.50001 10C8.10219 10 7.72066 9.84196 7.43935 9.56066C7.15805 9.27936 7.00001 8.89782 7.00001 8.5ZM10 17H7.00001V14H10V17ZM17 15.5C17 15.7967 16.912 16.0867 16.7472 16.3334C16.5824 16.58 16.3481 16.7723 16.074 16.8858C15.7999 16.9994 15.4983 17.0291 15.2074 16.9712C14.9164 16.9133 14.6491 16.7704 14.4393 16.5607C14.2296 16.3509 14.0867 16.0836 14.0288 15.7926C13.971 15.5017 14.0007 15.2001 14.1142 14.926C14.2277 14.6519 14.42 14.4176 14.6666 14.2528C14.9133 14.088 15.2033 14 15.5 14C15.8978 14 16.2793 14.158 16.5607 14.4393C16.842 14.7206 17 15.1022 17 15.5ZM14 7H17V10H14V7Z" fill="#161616"/>
</svg>
