<svg width="14" height="14" viewBox="0 0 14 14" fill="none" xmlns="http://www.w3.org/2000/svg">
<path d="M9.724 9C10.5489 8.0204 11.0009 6.7807 11 5.5C11 4.41221 10.6774 3.34884 10.0731 2.44437C9.4687 1.5399 8.6098 0.834954 7.6048 0.418674C6.5998 0.00238377 5.4939 -0.106536 4.42701 0.105684C3.36011 0.317904 2.3801 0.841734 1.61092 1.61092C0.841734 2.3801 0.317904 3.36011 0.105684 4.42701C-0.106536 5.4939 0.00238377 6.5998 0.418674 7.6048C0.834954 8.6098 1.5399 9.4687 2.44437 10.0731C3.34884 10.6774 4.41221 11 5.5 11C6.7807 11.0009 8.0204 10.5489 9 9.724L12.793 13.5L13.5 12.793L9.724 9ZM5.5 10C4.60999 10 3.73996 9.7361 2.99994 9.2416C2.25992 8.7471 1.68314 8.0443 1.34254 7.2221C1.00195 6.3998 0.912844 5.49501 1.08647 4.6221C1.2601 3.74918 1.68869 2.94736 2.31802 2.31802C2.94736 1.68869 3.74918 1.2601 4.6221 1.08647C5.49501 0.912844 6.3998 1.00195 7.2221 1.34254C8.0443 1.68314 8.7471 2.25992 9.2416 2.99994C9.7361 3.73996 10 4.60999 10 5.5C9.9987 6.6931 9.5241 7.8369 8.6805 8.6805C7.8369 9.5241 6.6931 9.9987 5.5 10Z" fill="#161616"/>
<path d="M4 5H3V4C3.00031 3.73488 3.10576 3.4807 3.29323 3.29323C3.4807 3.10576 3.73488 3.00031 4 3H5V4H4V5Z" fill="#161616"/>
<path d="M8 5H7V4H6V3H7C7.2651 3.00031 7.5193 3.10576 7.7068 3.29323C7.8942 3.4807 7.9997 3.73488 8 4V5Z" fill="#161616"/>
<path d="M5 8H4C3.73488 7.9997 3.4807 7.8942 3.29323 7.7068C3.10576 7.5193 3.00031 7.2651 3 7V6H4V7H5V8Z" fill="#161616"/>
<path d="M7 8H6V7H7V6H8V7C7.9997 7.2651 7.8942 7.5193 7.7068 7.7068C7.5193 7.8942 7.2651 7.9997 7 8Z" fill="#161616"/>
</svg>
