<svg width="48" height="48" viewBox="0 0 48 48" fill="none" xmlns="http://www.w3.org/2000/svg">
<rect width="16" height="16" transform="translate(16 16)" fill="current" fill-opacity="0.01" style="mix-blend-mode:multiply"/>
<path d="M28 31H18C17.7349 30.9997 17.4807 30.8943 17.2932 30.7068C17.1057 30.5193 17.0003 30.2651 17 30V27C17.0003 26.7349 17.1057 26.4807 17.2932 26.2932C17.4807 26.1057 17.7349 26.0003 18 26H28C28.2651 26.0003 28.5193 26.1057 28.7068 26.2932C28.8943 26.4807 28.9997 26.7349 29 27V30C28.9997 30.2651 28.8943 30.5193 28.7068 30.7068C28.5193 30.8943 28.2651 30.9997 28 31ZM17.9993 27L18 30H28V27H17.9993Z" fill="current"/>
<path d="M31 17.705L30.295 17L28.5 18.795L26.705 17L26 17.705L27.795 19.5L26 21.295L26.705 22L28.5 20.205L30.295 22L31 21.295L29.205 19.5L31 17.705Z" fill="current"/>
<path d="M18 23V20H25V19H18C17.7349 19.0003 17.4807 19.1058 17.2932 19.2932C17.1058 19.4807 17.0003 19.7349 17 20V23C17.0003 23.2651 17.1058 23.5193 17.2932 23.7068C17.4807 23.8942 17.7349 23.9997 18 24H29V23H18Z" fill="current"/>
</svg>
