<svg width="16" height="16" viewBox="0 0 16 16" fill="none" xmlns="http://www.w3.org/2000/svg">
<rect width="16" height="16" fill="white" fill-opacity="0.01" style="mix-blend-mode:multiply"/>
<path d="M6.5 10.5H13.085L11.795 11.795L12.5 12.5L15 10L12.5 7.50001L11.795 8.20501L13.085 9.50001H6.5V10.5Z" fill="#161616"/>
<path d="M11 7.00001V5.00001C11.0004 4.93421 10.9878 4.86897 10.9629 4.80806C10.938 4.74714 10.9013 4.69173 10.855 4.64501L7.355 1.14501C7.30828 1.09867 7.25287 1.06201 7.19195 1.03712C7.13103 1.01224 7.0658 0.999628 7 1.00001H2C1.73478 1.00001 1.48043 1.10537 1.29289 1.2929C1.10536 1.48044 1 1.73479 1 2.00001V14C1 14.2652 1.10536 14.5196 1.29289 14.7071C1.48043 14.8947 1.73478 15 2 15H10C10.2652 15 10.5196 14.8947 10.7071 14.7071C10.8946 14.5196 11 14.2652 11 14V13H10V14H2V2.00001H6V5.00001C6 5.26523 6.10536 5.51958 6.29289 5.70712C6.48043 5.89465 6.73478 6.00001 7 6.00001H10V7.00001H11ZM7 5.00001V2.20501L9.795 5.00001H7Z" fill="#161616"/>
</svg>
