<svg width="48" height="48" viewBox="0 0 48 48" fill="none" xmlns="http://www.w3.org/2000/svg">
<rect width="16" height="16" transform="translate(16 16)" fill="current" fill-opacity="0.01" style="mix-blend-mode:multiply"/>
<path d="M22.5 26.5H29.085L27.795 27.795L28.5 28.5L31 26L28.5 23.5L27.795 24.205L29.085 25.5H22.5V26.5Z" fill="current"/>
<path d="M27 23V21C27.0004 20.9342 26.9878 20.869 26.9629 20.808C26.938 20.7471 26.9013 20.6917 26.855 20.645L23.355 17.145C23.3083 17.0987 23.2529 17.062 23.192 17.0371C23.131 17.0122 23.0658 16.9996 23 17H18C17.7348 17 17.4804 17.1053 17.2929 17.2929C17.1054 17.4804 17 17.7348 17 18V30C17 30.2652 17.1054 30.5196 17.2929 30.7071C17.4804 30.8946 17.7348 31 18 31H26C26.2652 31 26.5196 30.8946 26.7071 30.7071C26.8946 30.5196 27 30.2652 27 30V29H26V30H18V18H22V21C22 21.2652 22.1054 21.5196 22.2929 21.7071C22.4804 21.8946 22.7348 22 23 22H26V23H27ZM23 21V18.205L25.795 21H23Z" fill="current"/>
</svg>
