<svg width="24" height="24" viewBox="0 0 24 24" fill="none" xmlns="http://www.w3.org/2000/svg">
<path fill-rule="evenodd" clip-rule="evenodd" d="M13.2243 5.05526C13.0209 5.00643 12.7932 5 12.0118 5H9.80002C8.94344 5 8.36115 5.00078 7.91106 5.03755C7.47265 5.07337 7.24844 5.1383 7.09204 5.21799C6.71572 5.40974 6.40976 5.7157 6.21801 6.09202C6.13832 6.24842 6.0734 6.47262 6.03758 6.91104C6.0008 7.36113 6.00002 7.94342 6.00002 8.8V12C6.00002 12.5523 5.55231 13 5.00002 13C4.44774 13 4.00002 12.5523 4.00002 12L4.00002 8.7587C4.00001 7.95373 4 7.28937 4.04422 6.74818C4.09014 6.18608 4.18871 5.66938 4.436 5.18404C4.81949 4.43139 5.43141 3.81947 6.18406 3.43598C6.6694 3.18869 7.1861 3.09012 7.7482 3.0442C8.28939 2.99998 8.95375 2.99999 9.75873 3L12.0118 3C12.0462 3 12.0802 2.99999 12.1137 2.99997C12.7487 2.99967 13.2285 2.99944 13.6912 3.11052C14.0993 3.20851 14.4895 3.37013 14.8474 3.58944C15.2531 3.83807 15.5922 4.17749 16.041 4.62672C16.0647 4.65043 16.0887 4.67445 16.113 4.69878L18.3012 6.88701C18.3256 6.91134 18.3496 6.93534 18.3733 6.95903C18.8225 7.40782 19.162 7.74693 19.4106 8.15265C19.6299 8.51054 19.7915 8.90072 19.8895 9.30886C20.0006 9.77155 20.0004 10.2513 20.0001 10.8863C20 10.9199 20 10.9538 20 10.9882V15.2413C20 16.0463 20 16.7106 19.9558 17.2518C19.9099 17.8139 19.8113 18.3306 19.5641 18.816C19.1806 19.5686 18.5686 20.1805 17.816 20.564C17.3307 20.8113 16.8139 20.9099 16.2519 20.9558C15.7107 21 15.0463 21 14.2413 21H13C12.4477 21 12 20.5523 12 20C12 19.4477 12.4477 19 13 19H14.2C15.0566 19 15.6389 18.9992 16.089 18.9625C16.5274 18.9266 16.7516 18.8617 16.908 18.782C17.2843 18.5903 17.5903 18.2843 17.782 17.908C17.8617 17.7516 17.9267 17.5274 17.9625 17.089C17.9992 16.6389 18 16.0566 18 15.2V10.9882C18 10.2069 17.9936 9.97916 17.9448 9.77575C17.8958 9.57168 17.815 9.37659 17.7053 9.19765C17.596 9.01929 17.4395 8.85373 16.887 8.30122L14.6988 6.113C14.1463 5.56048 13.9807 5.40402 13.8024 5.29472C13.6234 5.18506 13.4283 5.10426 13.2243 5.05526Z" fill="#757575"/>
<path fill-rule="evenodd" clip-rule="evenodd" d="M7.00002 13.4C7.25828 13.4 7.48757 13.5653 7.56923 13.8103L8.47437 16.5257L11.1898 17.4308C11.4348 17.5125 11.6 17.7417 11.6 18C11.6 18.2583 11.4348 18.4875 11.1898 18.5692L8.47437 19.4743L7.56923 22.1897C7.48757 22.4347 7.25828 22.6 7.00002 22.6C6.74177 22.6 6.51248 22.4347 6.43081 22.1897L5.52568 19.4743L2.81029 18.5692C2.56528 18.4875 2.40002 18.2583 2.40002 18C2.40002 17.7417 2.56528 17.5125 2.81029 17.4308L5.52568 16.5257L6.43081 13.8103C6.51248 13.5653 6.74177 13.4 7.00002 13.4Z" fill="#757575"/>
<path fill-rule="evenodd" clip-rule="evenodd" d="M13 4C13.5523 4 14 4.44772 14 5V9H18C18.5523 9 19 9.44772 19 10C19 10.5523 18.5523 11 18 11H13C12.4477 11 12 10.5523 12 10V5C12 4.44772 12.4477 4 13 4Z" fill="#757575"/>
</svg>
