<svg width="16" height="16" viewBox="0 0 16 16" fill="none" xmlns="http://www.w3.org/2000/svg">
<path fill-rule="evenodd" clip-rule="evenodd" d="M8.81614 3.37017C8.68054 3.33761 8.52874 3.33333 8.00782 3.33333H6.53331C5.96226 3.33333 5.57406 3.33385 5.274 3.35836C4.98172 3.38224 4.83225 3.42553 4.72799 3.47865C4.47711 3.60649 4.27313 3.81046 4.1453 4.06134C4.09217 4.16561 4.04889 4.31508 4.02501 4.60735C4.00049 4.90741 3.99998 5.29561 3.99998 5.86666V8C3.99998 8.36819 3.7015 8.66666 3.33331 8.66666C2.96512 8.66666 2.66664 8.36819 2.66664 8L2.66664 5.83913C2.66663 5.30248 2.66663 4.85958 2.6961 4.49878C2.72672 4.12405 2.79243 3.77958 2.95729 3.45602C3.21295 2.95426 3.6209 2.54631 4.12267 2.29065C4.44622 2.12579 4.79069 2.06008 5.16542 2.02946C5.52622 1.99998 5.96913 1.99999 6.50578 2L8.00782 2C8.03076 2 8.0534 1.99999 8.07575 1.99997C8.49908 1.99977 8.81894 1.99962 9.1274 2.07368C9.3995 2.139 9.65962 2.24675 9.89821 2.39296C10.1687 2.55871 10.3948 2.78499 10.694 3.08447C10.7098 3.10028 10.7258 3.1163 10.742 3.13252L12.2008 4.59133C12.217 4.60755 12.233 4.62355 12.2488 4.63935C12.5483 4.93854 12.7746 5.16461 12.9403 5.43509C13.0866 5.67369 13.1943 5.93381 13.2596 6.2059C13.3337 6.51436 13.3335 6.83423 13.3333 7.25756C13.3333 7.27991 13.3333 7.30254 13.3333 7.32548V10.1608C13.3333 10.6975 13.3333 11.1404 13.3038 11.5012C13.2732 11.8759 13.2075 12.2204 13.0427 12.544C12.787 13.0457 12.379 13.4537 11.8773 13.7093C11.5537 13.8742 11.2093 13.9399 10.8345 13.9705C10.4737 14 10.0308 14 9.49419 14H8.66664C8.29845 14 7.99998 13.7015 7.99998 13.3333C7.99998 12.9651 8.29845 12.6667 8.66664 12.6667H9.46664C10.0377 12.6667 10.4259 12.6661 10.726 12.6416C11.0182 12.6177 11.1677 12.5745 11.272 12.5213C11.5228 12.3935 11.7268 12.1895 11.8547 11.9386C11.9078 11.8344 11.9511 11.6849 11.9749 11.3926C11.9995 11.0926 12 10.7044 12 10.1333V7.32548C12 6.80457 11.9957 6.65277 11.9631 6.51716C11.9305 6.38111 11.8766 6.25105 11.8035 6.13176C11.7306 6.01285 11.6263 5.90248 11.258 5.53414L9.79916 4.07533C9.43082 3.70698 9.32045 3.60268 9.20155 3.52981C9.08225 3.4567 8.95219 3.40283 8.81614 3.37017Z" fill="white"/>
<path fill-rule="evenodd" clip-rule="evenodd" d="M4.66664 8.93333C4.83881 8.93333 4.99167 9.0435 5.04612 9.20684L5.64954 11.0171L7.4598 11.6205C7.62314 11.675 7.73331 11.8278 7.73331 12C7.73331 12.1722 7.62314 12.325 7.4598 12.3795L5.64954 12.9829L5.04612 14.7932C4.99167 14.9565 4.83881 15.0667 4.66664 15.0667C4.49447 15.0667 4.34161 14.9565 4.28717 14.7932L3.68375 12.9829L1.87348 12.3795C1.71015 12.325 1.59998 12.1722 1.59998 12C1.59998 11.8278 1.71015 11.675 1.87348 11.6205L3.68375 11.0171L4.28717 9.20684C4.34161 9.0435 4.49447 8.93333 4.66664 8.93333Z" fill="white"/>
<path fill-rule="evenodd" clip-rule="evenodd" d="M8.66664 2.66666C9.03483 2.66666 9.33331 2.96514 9.33331 3.33333V6H12C12.3682 6 12.6666 6.29847 12.6666 6.66666C12.6666 7.03485 12.3682 7.33333 12 7.33333H8.66664C8.29845 7.33333 7.99998 7.03485 7.99998 6.66666V3.33333C7.99998 2.96514 8.29845 2.66666 8.66664 2.66666Z" fill="white"/>
</svg>
