<svg width="24" height="24" viewBox="0 0 24 24" fill="none" xmlns="http://www.w3.org/2000/svg">
<path fill-rule="evenodd" clip-rule="evenodd" d="M13.2246 5.05526C13.0212 5.00643 12.7935 5 12.0122 5H9.80039C8.94381 5 8.36152 5.00078 7.91143 5.03755C7.47301 5.07337 7.24881 5.1383 7.09241 5.21799C6.71609 5.40974 6.41012 5.7157 6.21838 6.09202C6.13869 6.24842 6.07376 6.47262 6.03794 6.91104C6.00117 7.36113 6.00039 7.94342 6.00039 8.8V12C6.00039 12.5523 5.55268 13 5.00039 13C4.44811 13 4.00039 12.5523 4.00039 12L4.00039 8.7587C4.00038 7.95373 4.00037 7.28937 4.04458 6.74818C4.09051 6.18608 4.18907 5.66938 4.43636 5.18404C4.81986 4.43139 5.43178 3.81947 6.18443 3.43598C6.66976 3.18869 7.18647 3.09012 7.74856 3.0442C8.28976 2.99998 8.95412 2.99999 9.75909 3L12.0122 3C12.0466 3 12.0805 2.99999 12.114 2.99997C12.749 2.99967 13.2288 2.99944 13.6915 3.11052C14.0997 3.20851 14.4899 3.37013 14.8477 3.58944C15.2535 3.83807 15.5926 4.17749 16.0414 4.62672C16.0651 4.65043 16.0891 4.67445 16.1134 4.69878L18.3016 6.88701C18.3259 6.91134 18.35 6.93534 18.3737 6.95903C18.8229 7.40782 19.1623 7.74693 19.411 8.15265C19.6303 8.51054 19.7919 8.90072 19.8899 9.30886C20.001 9.77155 20.0007 10.2513 20.0004 10.8863C20.0004 10.9199 20.0004 10.9538 20.0004 10.9882V15.2413C20.0004 16.0463 20.0004 16.7106 19.9562 17.2518C19.9103 17.8139 19.8117 18.3306 19.5644 18.816C19.1809 19.5686 18.569 20.1805 17.8164 20.564C17.331 20.8113 16.8143 20.9099 16.2522 20.9558C15.711 21 15.0467 21 14.2417 21H13.0004C12.4481 21 12.0004 20.5523 12.0004 20C12.0004 19.4477 12.4481 19 13.0004 19H14.2004C15.057 19 15.6393 18.9992 16.0894 18.9625C16.5278 18.9266 16.752 18.8617 16.9084 18.782C17.2847 18.5903 17.5907 18.2843 17.7824 17.908C17.8621 17.7516 17.927 17.5274 17.9628 17.089C17.9996 16.6389 18.0004 16.0566 18.0004 15.2V10.9882C18.0004 10.2069 17.994 9.97916 17.9451 9.77575C17.8961 9.57168 17.8153 9.37659 17.7057 9.19765C17.5964 9.01929 17.4399 8.85373 16.8874 8.30122L14.6992 6.113C14.1467 5.56048 13.9811 5.40402 13.8027 5.29472C13.6238 5.18506 13.4287 5.10426 13.2246 5.05526Z" fill="#757575"/>
<path fill-rule="evenodd" clip-rule="evenodd" d="M7.00039 13.4C7.25865 13.4 7.48793 13.5653 7.5696 13.8103L8.47473 16.5257L11.1901 17.4308C11.4351 17.5125 11.6004 17.7417 11.6004 18C11.6004 18.2583 11.4351 18.4875 11.1901 18.5692L8.47473 19.4743L7.5696 22.1897C7.48793 22.4347 7.25865 22.6 7.00039 22.6C6.74213 22.6 6.51285 22.4347 6.43118 22.1897L5.52605 19.4743L2.81065 18.5692C2.56565 18.4875 2.40039 18.2583 2.40039 18C2.40039 17.7417 2.56565 17.5125 2.81065 17.4308L5.52605 16.5257L6.43118 13.8103C6.51285 13.5653 6.74213 13.4 7.00039 13.4Z" fill="#757575"/>
<path fill-rule="evenodd" clip-rule="evenodd" d="M13.0004 4C13.5527 4 14.0004 4.44772 14.0004 5V9H18.0004C18.5527 9 19.0004 9.44772 19.0004 10C19.0004 10.5523 18.5527 11 18.0004 11H13.0004C12.4481 11 12.0004 10.5523 12.0004 10V5C12.0004 4.44772 12.4481 4 13.0004 4Z" fill="#757575"/>
</svg>
