<svg width="16" height="16" viewBox="0 0 16 16" fill="none" xmlns="http://www.w3.org/2000/svg">
<path d="M8 9C8.55228 9 9 8.55228 9 8C9 7.44772 8.55228 7 8 7C7.44772 7 7 7.44772 7 8C7 8.55228 7.44772 9 8 9Z" fill="#161616"/>
<path d="M10 8.5V7.5H13.085L11.795 6.205L12.5 5.5L15 8L12.5 10.5L11.795 9.795L13.085 8.5H10Z" fill="#161616"/>
<path d="M7.5 13.085V10H8.5V13.085L9.795 11.795L10.5 12.5L8 15L5.5 12.5L6.205 11.795L7.5 13.085Z" fill="#161616"/>
<path d="M3.5 5.5L4.205 6.205L2.915 7.5H6V8.5H2.915L4.205 9.795L3.5 10.5L1 8L3.5 5.5Z" fill="#161616"/>
<path d="M8.5 2.915V6H7.5V2.915L6.205 4.205L5.5 3.5L8 1L10.5 3.5L9.795 4.205L8.5 2.915Z" fill="#161616"/>
</svg>
