<svg width="24" height="24" viewBox="0 0 24 24" fill="none" xmlns="http://www.w3.org/2000/svg">
<path d="M7 19H13C13.2651 18.9997 13.5193 18.8942 13.7068 18.7068C13.8942 18.5193 13.9997 18.2651 14 18V16.5H13V18H7V6H13V7.5H14V6C13.9997 5.73488 13.8942 5.4807 13.7068 5.29323C13.5193 5.10576 13.2651 5.0003 13 5H7C6.73488 5.0003 6.4807 5.10576 6.29323 5.29323C6.10576 5.4807 6.0003 5.73488 6 6V18C6.0003 18.2651 6.10576 18.5193 6.29323 18.7068C6.4807 18.8942 6.73488 18.9997 7 19Z" fill="#757575"/>
<path d="M14.293 14.293L16.086 12.5H9V11.5H16.086L14.293 9.707L15 9L18 12L15 15L14.293 14.293Z" fill="#757575"/>
</svg>
