<svg width="16" height="16" viewBox="0 0 16 16" fill="none" xmlns="http://www.w3.org/2000/svg">
<rect width="16" height="16" fill="white" fill-opacity="0.01" style="mix-blend-mode:multiply"/>
<path d="M13 11C12.6441 11.0019 12.2953 11.0998 11.9904 11.2834L10.0835 9.37645C10.3551 8.96877 10.5 8.48986 10.5 8C10.5 7.51014 10.3551 7.03123 10.0835 6.62355L11.357 5.35C11.6792 5.50521 12.0459 5.54137 12.3922 5.45208C12.7385 5.36279 13.0421 5.1538 13.249 4.86214C13.456 4.57049 13.5531 4.21498 13.523 3.85862C13.493 3.50225 13.3377 3.16802 13.0849 2.91514C12.832 2.66225 12.4978 2.50704 12.1414 2.47699C11.785 2.44694 11.4295 2.544 11.1379 2.75097C10.8462 2.95794 10.6372 3.26146 10.5479 3.60777C10.4586 3.95407 10.4948 4.32081 10.65 4.643L9.3765 5.9165C8.96882 5.64492 8.48991 5.5 8.00005 5.5C7.51019 5.5 7.03128 5.64492 6.6236 5.9165L4.7166 4.00955C4.90018 3.70466 4.99809 3.35589 5 3C5 2.60444 4.8827 2.21776 4.66294 1.88886C4.44318 1.55996 4.13082 1.30362 3.76537 1.15224C3.39992 1.00087 2.99778 0.96126 2.60982 1.03843C2.22186 1.1156 1.86549 1.30608 1.58579 1.58579C1.30608 1.86549 1.1156 2.22186 1.03843 2.60982C0.96126 2.99778 1.00087 3.39992 1.15224 3.76537C1.30362 4.13082 1.55996 4.44318 1.88886 4.66294C2.21776 4.8827 2.60444 5 3 5C3.35589 4.99809 3.70466 4.90018 4.00955 4.7166L5.9165 6.62355C5.64492 7.03123 5.5 7.51014 5.5 8C5.5 8.48986 5.64492 8.96877 5.9165 9.37645L4.0096 11.2834C3.7047 11.0998 3.3559 11.0019 3 11C2.60444 11 2.21776 11.1173 1.88886 11.3371C1.55996 11.5568 1.30362 11.8692 1.15224 12.2346C1.00087 12.6001 0.96126 13.0022 1.03843 13.3902C1.1156 13.7781 1.30608 14.1345 1.58579 14.4142C1.86549 14.6939 2.22186 14.8844 2.60982 14.9616C2.99778 15.0387 3.39992 14.9991 3.76537 14.8478C4.13082 14.6964 4.44318 14.44 4.66294 14.1111C4.8827 13.7822 5 13.3956 5 13C4.99812 12.6441 4.90023 12.2953 4.71665 11.9904L6.62355 10.0835C6.88945 10.2607 7.18703 10.385 7.5 10.4495V12.0919C7.16639 12.2098 6.88522 12.4419 6.70619 12.7471C6.52715 13.0523 6.46177 13.411 6.5216 13.7597C6.58144 14.1085 6.76264 14.4248 7.03317 14.6529C7.30371 14.881 7.64616 15.0061 8 15.0061C8.35384 15.0061 8.6963 14.881 8.96683 14.6529C9.23737 14.4248 9.41856 14.1085 9.4784 13.7597C9.53823 13.411 9.47286 13.0523 9.29382 12.7471C9.11478 12.4419 8.83361 12.2098 8.5 12.0919V10.4495C8.81297 10.385 9.11055 10.2607 9.37645 10.0835L11.2834 11.9904C11.0998 12.2953 11.0019 12.6441 11 13C11 13.3956 11.1173 13.7822 11.3371 14.1111C11.5568 14.44 11.8692 14.6964 12.2346 14.8478C12.6001 14.9991 13.0022 15.0387 13.3902 14.9616C13.7781 14.8844 14.1345 14.6939 14.4142 14.4142C14.6939 14.1345 14.8844 13.7781 14.9616 13.3902C15.0387 13.0022 14.9991 12.6001 14.8478 12.2346C14.6964 11.8692 14.44 11.5568 14.1111 11.3371C13.7822 11.1173 13.3956 11 13 11ZM8 6.5C8.29667 6.5 8.58668 6.58797 8.83336 6.7528C9.08003 6.91762 9.27229 7.15189 9.38582 7.42598C9.49935 7.70007 9.52906 8.00167 9.47118 8.29264C9.4133 8.58361 9.27044 8.85088 9.06066 9.06066C8.85088 9.27044 8.58361 9.4133 8.29264 9.47118C8.00167 9.52906 7.70007 9.49935 7.42598 9.38582C7.15189 9.27229 6.91762 9.08003 6.7528 8.83336C6.58797 8.58668 6.5 8.29667 6.5 8C6.50044 7.60231 6.65861 7.22103 6.93982 6.93982C7.22103 6.65861 7.60231 6.50044 8 6.5ZM2 3C2 2.80222 2.05865 2.60888 2.16853 2.44443C2.27841 2.27998 2.43459 2.15181 2.61732 2.07612C2.80004 2.00043 3.00111 1.98063 3.19509 2.01922C3.38907 2.0578 3.56726 2.15304 3.70711 2.29289C3.84696 2.43275 3.9422 2.61093 3.98079 2.80491C4.01937 2.99889 3.99957 3.19996 3.92388 3.38268C3.84819 3.56541 3.72002 3.72159 3.55557 3.83147C3.39112 3.94135 3.19778 4 3 4C2.73487 3.99974 2.48067 3.89429 2.29319 3.70682C2.10571 3.51934 2.00027 3.26514 2 3ZM3 14C2.80222 14 2.60888 13.9414 2.44443 13.8315C2.27998 13.7216 2.15181 13.5654 2.07612 13.3827C2.00043 13.2 1.98063 12.9989 2.01922 12.8049C2.0578 12.6109 2.15304 12.4327 2.29289 12.2929C2.43275 12.153 2.61093 12.0578 2.80491 12.0192C2.99889 11.9806 3.19996 12.0004 3.38268 12.0761C3.56541 12.1518 3.72159 12.28 3.83147 12.4444C3.94135 12.6089 4 12.8022 4 13C3.9997 13.2651 3.89424 13.5193 3.70677 13.7068C3.5193 13.8942 3.26512 13.9997 3 14ZM13 14C12.8022 14 12.6089 13.9414 12.4444 13.8315C12.28 13.7216 12.1518 13.5654 12.0761 13.3827C12.0004 13.2 11.9806 12.9989 12.0192 12.8049C12.0578 12.6109 12.153 12.4327 12.2929 12.2929C12.4327 12.153 12.6109 12.0578 12.8049 12.0192C12.9989 11.9806 13.2 12.0004 13.3827 12.0761C13.5654 12.1518 13.7216 12.28 13.8315 12.4444C13.9414 12.6089 14 12.8022 14 13C13.9996 13.2651 13.8942 13.5193 13.7067 13.7067C13.5193 13.8942 13.2651 13.9996 13 14Z" fill="#161616"/>
</svg>
