<svg width="24" height="24" viewBox="0 0 24 24" fill="none" xmlns="http://www.w3.org/2000/svg">
<path d="M18 22.5H3C2.6023 22.4996 2.22101 22.3414 1.9398 22.0602C1.65859 21.779 1.50042 21.3977 1.5 21V16.5C1.50042 16.1023 1.65859 15.721 1.9398 15.4398C2.22101 15.1586 2.6023 15.0004 3 15H18C18.3977 15.0004 18.779 15.1586 19.0602 15.4398C19.3414 15.721 19.4996 16.1023 19.5 16.5V21C19.4996 21.3977 19.3414 21.779 19.0602 22.0602C18.779 22.3414 18.3977 22.4996 18 22.5ZM2.99888 16.5L3 21H18V16.5H2.99888Z" fill="#757575"/>
<path d="M22.5 2.5575L21.4425 1.5L18.75 4.1925L16.0575 1.5L15 2.5575L17.6925 5.25L15 7.9425L16.0575 9L18.75 6.3075L21.4425 9L22.5 7.9425L19.8075 5.25L22.5 2.5575Z" fill="#757575"/>
<path d="M3 10.5V6H13.5V4.5H3C2.60232 4.50046 2.22105 4.65864 1.93984 4.93984C1.65864 5.22105 1.50046 5.60232 1.5 6V10.5C1.50046 10.8977 1.65864 11.2789 1.93984 11.5602C2.22105 11.8414 2.60232 11.9995 3 12H19.5V10.5H3Z" fill="#757575"/>
</svg>
