<svg width="16" height="16" viewBox="0 0 16 16" fill="none" xmlns="http://www.w3.org/2000/svg">
<rect width="16" height="16" fill="white" fill-opacity="0.01" style="mix-blend-mode:multiply"/>
<path d="M13.5 11.07V8.49996C13.5 8.23474 13.3946 7.98039 13.2071 7.79285C13.0196 7.60532 12.7652 7.49996 12.5 7.49996H8.5V4.92996C8.97133 4.80826 9.3821 4.51885 9.65531 4.11596C9.92851 3.71307 10.0454 3.22437 9.98406 2.74146C9.92273 2.25855 9.68737 1.81459 9.32212 1.4928C8.95687 1.17101 8.48679 0.993469 8 0.993469C7.51322 0.993469 7.04314 1.17101 6.67789 1.4928C6.31264 1.81459 6.07728 2.25855 6.01595 2.74146C5.95461 3.22437 6.0715 3.71307 6.3447 4.11596C6.61791 4.51885 7.02868 4.80826 7.5 4.92996V7.49996H3.5C3.23479 7.49996 2.98043 7.60532 2.7929 7.79285C2.60536 7.98039 2.5 8.23474 2.5 8.49996V11.07C2.02868 11.1917 1.61791 11.4811 1.3447 11.884C1.0715 12.2869 0.954608 12.7756 1.01595 13.2585C1.07728 13.7414 1.31264 14.1853 1.67789 14.5071C2.04314 14.8289 2.51322 15.0065 3 15.0065C3.48679 15.0065 3.95687 14.8289 4.32212 14.5071C4.68737 14.1853 4.92273 13.7414 4.98406 13.2585C5.0454 12.7756 4.92851 12.2869 4.65531 11.884C4.3821 11.4811 3.97133 11.1917 3.5 11.07V8.49996H12.5V11.07C12.0287 11.1917 11.6179 11.4811 11.3447 11.884C11.0715 12.2869 10.9546 12.7756 11.0159 13.2585C11.0773 13.7414 11.3126 14.1853 11.6779 14.5071C12.0431 14.8289 12.5132 15.0065 13 15.0065C13.4868 15.0065 13.9569 14.8289 14.3221 14.5071C14.6874 14.1853 14.9227 13.7414 14.9841 13.2585C15.0454 12.7756 14.9285 12.2869 14.6553 11.884C14.3821 11.4811 13.9713 11.1917 13.5 11.07ZM4 13C4 13.1977 3.94136 13.3911 3.83147 13.5555C3.72159 13.72 3.56541 13.8482 3.38269 13.9238C3.19996 13.9995 2.9989 14.0193 2.80491 13.9807C2.61093 13.9422 2.43275 13.8469 2.2929 13.7071C2.15305 13.5672 2.0578 13.389 2.01922 13.1951C1.98063 13.0011 2.00044 12.8 2.07613 12.6173C2.15181 12.4346 2.27999 12.2784 2.44443 12.1685C2.60888 12.0586 2.80222 12 3 12C3.26522 12 3.51958 12.1053 3.70711 12.2929C3.89465 12.4804 4 12.7347 4 13ZM7 2.99996C7 2.80218 7.05865 2.60884 7.16854 2.44439C7.27842 2.27994 7.4346 2.15177 7.61732 2.07608C7.80005 2.00039 8.00111 1.98059 8.1951 2.01918C8.38908 2.05776 8.56726 2.153 8.70711 2.29285C8.84696 2.43271 8.9422 2.61089 8.98079 2.80487C9.01938 2.99885 8.99957 3.19992 8.92388 3.38264C8.8482 3.56537 8.72002 3.72155 8.55558 3.83143C8.39113 3.94131 8.19779 3.99996 8 3.99996C7.73479 3.99996 7.48043 3.8946 7.2929 3.70707C7.10536 3.51953 7 3.26518 7 2.99996ZM13 14C12.8022 14 12.6089 13.9413 12.4444 13.8314C12.28 13.7215 12.1518 13.5654 12.0761 13.3826C12.0004 13.1999 11.9806 12.9989 12.0192 12.8049C12.0578 12.6109 12.153 12.4327 12.2929 12.2929C12.4328 12.153 12.6109 12.0578 12.8049 12.0192C12.9989 11.9806 13.2 12.0004 13.3827 12.0761C13.5654 12.1518 13.7216 12.2799 13.8315 12.4444C13.9414 12.6088 14 12.8022 14 13C14 13.2652 13.8946 13.5195 13.7071 13.7071C13.5196 13.8946 13.2652 14 13 14Z" fill="#161616"/>
</svg>
