<svg width="24" height="24" viewBox="0 0 24 24" fill="none" xmlns="http://www.w3.org/2000/svg">
<path d="M20.7435 13.045C20.0658 13.225 19.3676 13.3161 18.6665 13.316C16.5315 13.316 14.5265 12.486 13.0205 10.98C12.0315 9.98536 11.3205 8.74888 10.9584 7.39381C10.5962 6.03874 10.5956 4.61242 10.9565 3.25701C11.0015 3.08755 11.0013 2.90921 10.9556 2.73988C10.91 2.57056 10.8207 2.41621 10.6966 2.29232C10.5725 2.16842 10.418 2.07934 10.2486 2.034C10.0792 1.98866 9.90086 1.98867 9.73147 2.03401C8.03463 2.4862 6.48653 3.37664 5.24247 4.61601C1.34447 8.51401 1.34447 14.859 5.24247 18.759C6.169 19.6907 7.27111 20.4294 8.48501 20.9323C9.69891 21.4353 11.0005 21.6924 12.3145 21.689C13.6281 21.6927 14.9294 21.4357 16.143 20.9329C17.3566 20.4302 18.4583 19.6916 19.3845 18.76C20.6248 17.5157 21.5156 15.9668 21.9675 14.269C22.0124 14.0996 22.012 13.9214 21.9664 13.7522C21.9208 13.583 21.8316 13.4287 21.7077 13.3048C21.5838 13.1809 21.4295 13.0917 21.2603 13.0461C21.0911 13.0005 20.9129 13.0001 20.7435 13.045ZM17.9715 17.346C17.2304 18.0911 16.349 18.6818 15.3781 19.084C14.4073 19.4862 13.3663 19.6918 12.3155 19.689C11.2643 19.6916 10.223 19.4858 9.2518 19.0835C8.28063 18.6811 7.39885 18.0903 6.65747 17.345C3.53947 14.226 3.53947 9.15001 6.65747 6.03101C7.25998 5.42918 7.95557 4.92843 8.71747 4.54801C8.60595 5.98707 8.80642 7.43325 9.3052 8.7877C9.80397 10.1422 10.5893 11.373 11.6075 12.396C12.6283 13.4174 13.8587 14.2049 15.2137 14.704C16.5688 15.2032 18.016 15.4021 19.4555 15.287C19.073 16.0476 18.5721 16.7426 17.9715 17.346Z" fill="#FCAF45"/>
</svg>
