<svg width="24" height="24" viewBox="0 0 24 24" fill="none" xmlns="http://www.w3.org/2000/svg">
<path d="M6.99354 12C6.99354 14.761 9.23954 17.007 12.0005 17.007C14.7615 17.007 17.0075 14.761 17.0075 12C17.0075 9.239 14.7615 6.993 12.0005 6.993C9.23954 6.993 6.99354 9.239 6.99354 12ZM12.0005 8.993C13.6585 8.993 15.0075 10.342 15.0075 12C15.0075 13.658 13.6585 15.007 12.0005 15.007C10.3425 15.007 8.99354 13.658 8.99354 12C8.99354 10.342 10.3425 8.993 12.0005 8.993ZM10.9985 19H12.9985V22H10.9985V19ZM10.9985 2H12.9985V5H10.9985V2ZM1.99854 11H4.99854V13H1.99854V11ZM18.9985 11H21.9985V13H18.9985V11ZM4.21953 18.363L6.33954 16.241L7.75454 17.655L5.63453 19.777L4.21953 18.363ZM16.2405 6.344L18.3625 4.222L19.7765 5.636L17.6545 7.758L16.2405 6.344ZM6.34254 7.759L4.22053 5.637L5.63554 4.223L7.75554 6.345L6.34254 7.759ZM19.7765 18.364L18.3625 19.778L16.2405 17.656L17.6545 16.242L19.7765 18.364Z" fill="#FCAF45"/>
</svg>
